<?xml version="1.0" standalone="no"?>
<!DOCTYPE svg PUBLIC "-//W3C//DTD SVG 20010904//EN"
 "http://www.w3.org/TR/2001/REC-SVG-20010904/DTD/svg10.dtd">
<svg version="1.0" xmlns="http://www.w3.org/2000/svg"
 width="1024.000000pt" height="1024.000000pt" viewBox="0 0 1024.000000 1024.000000"
 preserveAspectRatio="xMidYMid meet">

<g transform="translate(0.000000,1024.000000) scale(0.100000,-0.100000)"
fill="#000000" stroke="none">
<path d="M4650 8339 c-358 -14 -816 -61 -1063 -109 -58 -11 -147 -37 -199 -58
l-93 -37 -647 -3 -648 -2 0 59 c0 60 -16 89 -42 78 -7 -3 -50 -38 -96 -78
l-82 -72 0 -413 c0 -227 3 -420 6 -428 10 -27 41 -38 65 -25 25 13 70 63 116
127 27 38 33 55 33 99 l0 53 311 0 c292 0 311 -1 306 -17 -3 -10 -87 -200
-187 -423 -100 -223 -203 -458 -230 -522 -78 -185 -93 -218 -99 -217 -3 1 -34
32 -69 69 l-62 67 26 58 c22 48 26 67 21 114 -9 109 -75 198 -181 247 -48 23
-61 24 -261 24 l-210 0 -60 -28 c-33 -16 -82 -51 -109 -77 -164 -162 -114
-382 109 -486 57 -26 69 -28 265 -34 140 -5 225 -3 269 5 l63 11 27 -32 27
-32 -95 -48 c-90 -45 -170 -100 -240 -162 -22 -19 -49 -29 -98 -37 -212 -34
-500 -140 -596 -221 -57 -47 -60 -59 -91 -339 -47 -421 -55 -681 -56 -1805 0
-982 -1 -972 57 -1060 14 -22 49 -61 77 -87 l51 -48 -241 0 c-238 0 -241 0
-262 -23 -27 -29 -28 -71 -2 -97 20 -20 33 -20 4649 -20 4394 0 4630 1 4649
18 35 29 38 67 8 96 l-25 26 -237 0 -237 0 60 63 c32 34 70 85 84 112 l24 50
3 1090 c2 914 0 1124 -13 1300 -23 309 -63 634 -83 675 -43 89 -305 203 -602
262 -83 16 -111 26 -135 48 -53 48 -158 117 -245 160 -47 24 -86 44 -88 45 -1
1 11 16 27 33 l29 32 73 -10 c88 -11 283 -12 394 -1 136 13 253 89 307 200 51
103 16 236 -84 326 -98 88 -104 90 -351 93 -216 3 -217 3 -275 -23 -111 -51
-172 -134 -180 -246 -4 -56 -1 -75 21 -122 l25 -55 -67 -66 c-66 -66 -81 -76
-81 -55 0 18 -295 704 -428 995 -33 71 -62 139 -66 152 l-7 22 304 0 305 0 4
-55 c4 -49 11 -64 64 -131 74 -96 90 -108 124 -91 l25 13 3 426 2 426 -60 58
c-58 56 -107 94 -122 94 -22 0 -38 -36 -38 -86 l0 -54 -638 0 -638 0 -79 34
c-101 42 -170 59 -365 90 -482 77 -1213 111 -1850 85z m975 -200 c121 -5 244
-10 273 -11 64 -1 64 -2 60 -148 -2 -85 -6 -105 -18 -105 -12 0 -16 19 -18 98
l-3 97 -27 0 c-15 0 -117 7 -227 15 -110 8 -256 15 -325 15 -85 0 -130 4 -138
12 -9 9 -12 -13 -12 -100 l0 -112 -75 0 -75 0 0 131 0 131 183 -7 c100 -3 281
-10 402 -16z m-595 -8 c0 -25 -26 -31 -150 -31 -58 0 -206 -7 -329 -15 -123
-8 -228 -12 -232 -9 -5 3 -9 -43 -9 -101 0 -96 -2 -106 -17 -103 -16 3 -18 19
-21 130 l-3 126 83 2 c46 1 144 5 218 9 74 4 208 8 298 9 153 2 162 1 162 -17z
m-810 -130 l0 -129 -62 -6 c-462 -38 -698 -67 -873 -108 -202 -46 -266 -102
-379 -331 -181 -369 -566 -1214 -566 -1242 0 -21 19 -20 296 15 443 54 817 88
1234 110 107 5 228 12 268 14 51 3 72 1 72 -7 0 -26 -66 -124 -116 -174 -59
-59 -55 -72 14 -54 34 10 46 22 90 89 28 42 57 94 66 115 14 35 46 52 46 25 0
-10 2 -10 9 0 12 20 744 32 1210 21 205 -5 377 -12 382 -15 5 -3 9 0 9 5 0 6
6 11 13 11 6 -1 31 -40 54 -88 24 -48 59 -104 79 -124 31 -33 41 -38 81 -38
l46 0 -65 68 c-59 61 -108 134 -108 162 0 7 20 9 58 6 31 -3 116 -8 187 -11
214 -10 669 -44 925 -70 246 -25 633 -71 683 -81 l27 -6 -24 64 c-42 112 -486
1080 -573 1250 -94 185 -187 256 -388 297 -122 25 -444 66 -620 80 -71 6 -167
13 -212 17 l-83 6 0 124 0 124 53 0 c122 0 583 -65 682 -97 68 -22 185 -81
340 -172 181 -106 282 -206 349 -345 101 -210 562 -1243 571 -1279 4 -16 -12
-47 -66 -122 -141 -196 -277 -411 -266 -421 3 -3 27 14 53 37 58 51 173 127
229 152 30 13 62 46 125 127 47 60 90 109 95 110 6 0 64 -31 130 -70 66 -38
136 -73 155 -76 19 -3 40 -7 46 -9 15 -5 67 -130 98 -236 23 -80 23 -84 5 -91
-10 -4 -109 -30 -221 -58 -182 -46 -483 -130 -998 -280 -96 -28 -231 -62 -300
-76 -144 -30 -184 -29 -463 11 -217 31 -396 52 -514 60 l-93 7 -2 217 c-3 215
-3 216 -25 219 l-23 3 0 -220 c0 -122 -2 -221 -4 -221 -29 0 -36 16 -36 79 l0
66 -32 0 c-149 2 -658 29 -675 36 -23 8 -23 8 -23 -76 l0 -85 -75 0 -75 0 0
80 0 81 -32 -5 c-18 -3 -182 -11 -365 -17 l-332 -12 -3 -71 c-2 -58 -6 -71
-20 -74 -17 -3 -18 12 -18 217 l0 221 -25 0 -25 0 0 -219 0 -219 -87 -7 c-49
-3 -209 -22 -358 -41 -148 -19 -308 -40 -355 -45 -136 -17 -312 15 -665 120
-330 99 -775 223 -992 276 -84 21 -153 43 -153 49 0 20 46 160 79 239 30 70
35 77 61 77 35 0 90 23 157 66 29 18 76 45 104 59 60 31 48 39 151 -95 65 -83
82 -99 144 -131 85 -43 155 -90 212 -143 23 -21 44 -37 47 -34 11 10 -130 234
-272 431 l-71 98 53 122 c59 138 324 725 469 1042 57 124 113 231 139 265 51
66 162 150 329 247 152 89 235 128 313 147 77 20 451 74 586 85 57 4 105 9
107 10 1 0 2 -57 2 -128z m-1267 -77 c-37 -29 32 -26 -643 -25 l-306 1 -2 25
-2 25 493 0 492 0 -32 -26z m5265 -1 l-3 -28 -459 3 -458 2 -30 25 -30 25 492
0 491 0 -3 -27z m-5391 -97 c-30 -23 -165 -29 -504 -21 -265 6 -323 10 -323
21 0 12 69 14 423 14 359 -1 419 -3 404 -14z m5393 0 c0 -24 -79 -28 -446 -20
-269 5 -358 10 -372 20 -14 11 53 13 401 14 349 0 417 -2 417 -14z m-2923 -92
c210 -70 383 -137 525 -202 48 -23 95 -38 106 -35 15 3 20 -2 25 -25 5 -27 10
-29 44 -29 30 1 101 -30 333 -145 390 -194 750 -402 1007 -580 72 -50 76 -64
6 -21 -231 145 -1047 542 -1547 753 -240 101 -814 301 -908 316 -26 5 -58 -6
-153 -51 -133 -63 -554 -273 -570 -285 -5 -4 -86 -46 -179 -95 -177 -91 -448
-245 -901 -510 -148 -86 -274 -159 -280 -162 -5 -3 22 26 61 64 100 98 329
267 697 513 175 117 316 214 314 216 -13 13 -465 -221 -769 -398 -82 -48 -148
-85 -148 -83 0 1 63 131 140 287 191 391 187 387 510 433 156 21 321 40 548
60 l72 7 0 -47 c0 -39 3 -46 18 -43 12 2 18 15 20 43 5 57 42 79 42 25 0 -16
3 -30 7 -30 3 0 29 15 57 33 50 32 53 32 231 43 99 6 250 12 337 13 l156 1
199 -66z m663 -45 c0 -61 -2 -70 -16 -65 -9 3 -18 6 -20 6 -2 0 -4 29 -4 65 0
58 2 65 20 65 18 0 20 -7 20 -71z m310 46 c257 -23 476 -53 555 -77 59 -18 79
-31 125 -77 46 -46 67 -82 125 -206 39 -82 104 -220 146 -305 71 -145 82 -183
41 -147 -18 16 -185 118 -342 209 -179 104 -445 242 -680 353 l-235 111 -3 83
-3 82 48 -6 c26 -3 127 -12 223 -20z m-4468 -990 c30 -22 58 -72 58 -103 0
-10 -10 -34 -23 -53 -31 -46 -59 -50 -336 -47 l-236 3 -3 31 -3 31 122 6 c67
4 156 7 196 7 66 0 74 2 71 18 -3 15 -21 17 -186 20 -110 1 -182 6 -182 12 0
6 18 28 39 49 48 48 53 49 281 47 158 -1 178 -3 202 -21z m7045 14 c28 -10
103 -76 103 -91 0 -4 -83 -8 -184 -8 -148 0 -185 -3 -189 -14 -9 -22 2 -26 72
-26 36 0 123 -3 194 -7 112 -5 127 -8 127 -24 0 -50 5 -49 -265 -49 -140 0
-265 4 -279 10 -50 19 -73 111 -40 159 39 55 65 61 256 61 100 0 189 -5 205
-11z m-7400 -1031 c-45 -182 -57 -564 -23 -718 18 -85 81 -239 92 -227 4 3 2
28 -4 54 -6 26 -13 63 -16 81 l-6 34 39 -50 c99 -125 227 -183 635 -287 168
-43 237 -56 295 -57 169 -1 200 22 440 310 l191 229 77 -14 c43 -7 94 -11 113
-8 19 3 170 25 335 49 276 41 545 76 588 76 15 0 17 -13 17 -139 l0 -139 -87
-6 c-149 -11 -494 -46 -563 -57 -87 -14 -191 -66 -268 -135 -101 -91 -282
-303 -311 -364 -36 -79 -42 -221 -12 -317 37 -124 127 -237 244 -307 117 -70
10 -66 1889 -66 1860 0 1753 -3 1880 61 120 60 228 197 264 334 21 75 18 184
-7 258 -27 83 -94 172 -244 323 -163 165 -225 199 -415 223 -95 13 -346 37
-487 47 l-93 7 0 77 c0 42 -3 105 -7 140 l-6 63 69 -7 c136 -14 383 -47 570
-75 309 -49 340 -51 424 -36 56 10 78 10 86 1 6 -6 73 -87 150 -181 201 -246
266 -310 333 -329 101 -29 196 -22 416 34 324 82 493 145 577 216 15 12 46 43
68 69 45 52 47 47 26 -55 -8 -36 -12 -67 -11 -69 11 -11 81 158 98 239 30 137
27 410 -6 600 -13 74 -23 136 -22 138 9 11 399 -131 411 -149 15 -26 51 -406
60 -647 l7 -183 -39 -40 c-21 -21 -42 -39 -46 -39 -4 0 -8 57 -8 128 0 154
-14 331 -36 472 -23 147 -33 155 -34 25 0 -143 -14 -297 -46 -525 -14 -102
-27 -185 -28 -186 0 0 -39 -15 -86 -32 -230 -85 -521 -170 -941 -276 l-333
-84 -69 -143 c-75 -156 -132 -314 -142 -395 -5 -33 -2 -72 9 -115 24 -94 121
-284 235 -455 178 -269 224 -304 396 -304 218 0 888 98 1005 146 45 19 104 76
138 134 l27 45 3 -94 c3 -86 1 -96 -20 -118 -30 -32 -114 -70 -206 -94 -153
-39 -906 -151 -1081 -161 -88 -5 236 -14 579 -16 363 -2 379 -1 490 22 155 33
214 57 289 117 52 42 60 46 43 21 -56 -78 -148 -131 -315 -179 l-92 -27 -573
-4 -573 -3 -53 24 c-30 14 -73 42 -96 63 -54 49 -232 256 -418 486 -84 105
-163 192 -193 214 -68 50 -161 82 -267 93 -48 4 -816 8 -1707 7 -1796 -2
-1679 3 -1817 -67 -78 -39 -129 -92 -303 -309 -279 -349 -402 -474 -495 -501
-23 -7 -227 -9 -595 -7 l-560 3 -99 28 c-166 45 -261 99 -318 181 -20 28 -18
27 26 -11 64 -56 135 -90 254 -121 91 -23 116 -25 417 -29 176 -3 417 -1 535
3 l215 7 -199 23 c-443 52 -853 120 -977 163 -67 23 -152 65 -166 83 -11 13
-23 198 -13 198 3 0 14 -16 24 -35 11 -19 42 -57 70 -83 43 -41 63 -52 131
-70 196 -53 758 -132 936 -132 156 0 211 28 309 161 148 199 284 439 327 578
25 79 26 89 15 154 -14 81 -76 243 -156 408 l-56 117 -133 32 c-233 57 -648
167 -792 210 -147 44 -415 137 -427 149 -23 21 -79 491 -81 678 -3 197 -9 192
-42 -32 -16 -108 -39 -529 -31 -551 9 -24 -7 -15 -52 26 l-44 39 7 153 c7 181
19 329 42 532 l17 149 55 25 c54 23 337 121 355 122 4 0 6 -10 3 -22z m326
-279 c384 -106 728 -223 885 -303 56 -29 169 -122 159 -132 -2 -2 -70 22 -152
52 -280 103 -499 175 -712 235 -117 32 -219 59 -228 59 -12 0 -15 -15 -15 -81
0 -45 5 -99 11 -120 24 -79 110 -148 185 -149 74 0 158 47 193 111 12 21 24
39 27 39 4 0 27 -13 62 -36 2 -1 -8 -24 -21 -51 -106 -207 -395 -212 -512 -8
-36 63 -48 127 -42 213 4 69 33 202 43 202 3 0 55 -14 117 -31z m6815 -11 c18
-68 32 -158 32 -205 0 -75 -38 -169 -92 -228 -61 -67 -117 -90 -213 -89 -109
2 -192 53 -253 155 -29 48 -28 53 13 77 l34 21 7 -22 c22 -69 121 -137 198
-137 84 1 174 69 196 150 11 39 13 143 4 178 -8 28 -4 29 -244 -39 -260 -74
-413 -125 -762 -253 -54 -20 -98 -32 -98 -28 0 4 21 29 48 54 64 63 192 122
467 214 201 67 614 191 641 193 6 1 16 -18 22 -41z m-3398 -358 l0 -150 -75 0
-75 0 0 150 0 150 75 0 75 0 0 -150z m-882 -12 c-3 -119 -5 -143 -18 -143 -13
0 -15 24 -18 143 -2 138 -2 142 18 142 20 0 20 -4 18 -142z m1650 -6 c2 -133
1 -143 -15 -140 -16 3 -18 18 -21 146 -2 133 -1 143 15 140 16 -3 18 -18 21
-146z m-3563 -288 c14 -9 25 -20 25 -25 0 -13 -83 -11 -117 2 l-28 11 30 14
c40 18 61 17 90 -2z m5523 3 l42 -13 -33 -12 c-39 -14 -117 -16 -117 -3 0 10
40 40 55 40 6 1 29 -5 53 -12z m-4548 -298 c-59 -97 -90 -175 -97 -245 -11
-106 50 -210 154 -260 l56 -28 1621 3 c946 1 1636 6 1656 11 58 15 126 65 153
112 63 109 57 184 -30 357 -72 141 -68 131 -48 131 30 0 185 -188 223 -269 36
-78 36 -168 -2 -244 -36 -74 -103 -142 -174 -175 l-57 -27 -1710 0 -1710 0
-57 27 c-70 33 -145 106 -178 173 -35 74 -34 190 2 260 26 50 186 238 210 248
35 14 33 0 -12 -74z m390 -89 c0 -93 -3 -170 -7 -170 -3 0 -15 7 -25 17 -16
14 -18 33 -18 164 0 108 3 149 13 152 36 15 37 10 37 -163z m2745 158 c2 -7 6
-75 8 -150 4 -109 2 -141 -10 -157 -8 -12 -21 -21 -29 -21 -12 0 -14 29 -14
170 0 164 1 170 20 170 11 0 22 -6 25 -12z m-5349 -163 c59 -39 159 -80 294
-120 52 -16 98 -31 102 -34 4 -3 0 -14 -7 -25 -14 -18 -17 -18 -142 7 -70 14
-130 23 -133 21 -9 -10 146 -124 170 -124 14 0 13 -8 -9 -73 -11 -31 -23 -77
-26 -102 -4 -25 -8 -45 -10 -45 -8 0 -88 35 -140 62 -86 44 -172 107 -232 171
l-53 56 0 181 0 182 68 -62 c37 -33 90 -76 118 -95z m8104 -25 l0 -180 -78
-78 c-81 -79 -167 -136 -280 -184 -35 -16 -65 -28 -67 -28 -1 0 -5 19 -9 43
-4 23 -17 71 -29 106 -17 49 -19 65 -9 68 32 11 179 120 171 127 -2 1 -62 -9
-133 -22 l-129 -26 -20 25 -19 24 23 3 c54 7 269 85 334 121 39 22 108 71 155
110 47 39 86 70 88 71 1 0 2 -81 2 -180z m-2665 143 c57 -65 55 -174 -5 -244
l-29 -34 -1 153 c0 83 2 152 5 152 3 0 17 -12 30 -27z m-2929 -270 c-10 -10
-38 20 -57 62 -10 22 -19 63 -19 91 0 41 6 58 33 94 l32 45 9 -143 c4 -79 6
-146 2 -149z m-1738 -30 c17 -3 32 -8 32 -12 0 -3 -21 -19 -48 -36 -250 -158
-355 -519 -231 -800 34 -79 104 -169 161 -211 29 -21 66 -48 81 -61 l29 -23
-23 -8 -23 -9 25 -15 c13 -9 38 -23 54 -32 48 -25 10 -18 -63 11 -128 50 -236
143 -296 252 -13 26 -37 87 -52 136 -23 76 -27 109 -28 215 0 150 14 215 81
350 38 78 61 109 130 178 75 75 87 83 111 77 15 -3 42 -9 60 -12z m6505 -28
c109 -88 189 -220 228 -374 18 -71 21 -105 17 -215 -4 -110 -9 -144 -33 -216
-36 -104 -105 -210 -177 -269 -57 -47 -171 -105 -228 -115 l-35 -7 39 20 c61
32 71 43 52 56 -13 10 -8 17 38 49 182 125 276 321 262 546 -7 116 -24 183
-71 275 -41 82 -110 157 -196 216 -33 22 -59 43 -57 45 7 6 81 32 95 33 6 1
36 -19 66 -44z m-6163 -110 c60 -21 128 -72 163 -121 30 -43 60 -104 51 -104
-2 0 -20 18 -40 40 -21 23 -68 56 -112 78 -73 35 -80 37 -177 37 -95 0 -105
-2 -169 -34 -45 -23 -85 -54 -120 -93 -29 -32 -56 -58 -59 -58 -8 0 7 50 28
89 25 50 94 120 140 144 91 47 201 55 295 22z m5884 10 c120 -25 208 -96 251
-201 13 -32 23 -60 21 -61 -1 -1 -31 26 -67 60 -36 36 -90 76 -124 93 -54 26
-70 29 -160 29 -94 0 -105 -2 -170 -34 -41 -20 -90 -55 -117 -83 -51 -53 -60
-50 -29 10 48 93 130 159 231 186 70 19 80 19 164 1z m-6900 -317 c34 -123 74
-178 157 -215 35 -15 39 -20 39 -54 l0 -38 -53 18 c-167 58 -198 100 -223 299
-8 64 -14 118 -14 121 0 3 17 -12 39 -33 28 -27 43 -53 55 -98z m7797 3 c-7
-53 -17 -114 -24 -136 -18 -61 -79 -116 -162 -144 -38 -13 -76 -26 -82 -29 -9
-3 -13 7 -13 32 0 32 4 38 48 61 86 45 107 73 150 196 17 52 40 96 58 114 37
38 39 29 25 -94z m-6777 -71 c42 -28 96 -101 96 -128 0 -8 -18 -12 -46 -12
-59 0 -55 -20 9 -40 42 -13 47 -18 47 -45 0 -16 -9 -48 -19 -70 -63 -137 -251
-172 -357 -67 -32 32 -63 97 -64 133 0 28 41 73 78 84 34 10 26 25 -13 25 -39
0 -42 8 -21 48 57 108 190 141 290 72z m5893 9 c33 -20 93 -92 93 -110 0 -5
-18 -12 -40 -15 -51 -8 -51 -20 0 -28 79 -12 90 -89 27 -184 -64 -95 -198
-125 -294 -66 -52 33 -98 98 -108 155 l-7 37 56 17 c62 20 69 38 15 43 -51 5
-55 16 -25 66 29 49 78 92 123 106 42 14 120 4 160 -21z m-7110 -130 c62 -90
173 -172 283 -208 34 -11 36 -14 55 -96 12 -47 17 -85 12 -85 -34 0 -292 161
-387 241 l-50 42 0 126 0 126 28 -50 c15 -27 42 -71 59 -96z m8203 17 l0 -124
-62 -50 c-93 -72 -202 -145 -298 -196 -47 -25 -88 -46 -92 -46 -4 0 -1 15 6
33 8 17 19 58 26 89 l13 56 58 21 c125 46 229 142 309 284 17 31 34 57 36 57
2 0 4 -56 4 -124z m-5770 -368 c0 -7 -46 -105 -102 -218 -56 -113 -109 -222
-119 -242 l-17 -36 408 1 c402 2 409 2 414 22 3 12 12 106 21 210 24 292 20
275 61 273 40 -1 38 30 21 -281 l-12 -217 25 0 c14 0 440 -1 948 -3 l922 -2 0
60 c0 33 -5 114 -10 180 -5 66 -10 152 -11 190 l-3 70 32 3 c20 2 34 -2 37
-10 2 -7 11 -87 20 -178 9 -91 20 -199 26 -240 l11 -75 407 0 407 0 -92 180
c-50 100 -106 214 -123 254 l-31 72 41 -3 40 -3 107 -203 c59 -111 123 -224
142 -250 l36 -47 131 0 131 0 60 -55 c33 -30 60 -58 61 -62 0 -5 -1067 -8
-2371 -8 l-2373 1 61 58 62 58 125 8 c69 4 130 4 136 1 21 -13 81 85 216 352
l76 152 40 0 c24 0 39 -5 39 -12z"/>
<path d="M4720 6290 c-135 -4 -283 -8 -330 -9 l-85 -1 -34 -62 c-19 -35 -44
-77 -57 -95 -13 -17 -24 -34 -24 -37 0 -3 191 -6 425 -6 l425 0 0 110 0 110
-37 -2 c-21 -1 -148 -5 -283 -8z"/>
<path d="M5190 6190 l0 -110 425 0 c253 0 425 4 425 9 0 5 -11 23 -25 39 -14
17 -40 56 -58 88 l-33 59 -134 6 c-74 4 -240 9 -367 12 l-233 6 0 -109z"/>
<path d="M3870 6149 c-242 -20 -664 -60 -668 -64 -8 -7 37 -62 91 -112 150
-136 345 -180 687 -154 80 6 351 16 603 23 l457 12 0 88 0 88 -620 -2 c-341
-2 -620 -1 -620 2 0 3 19 13 42 23 49 20 157 89 158 100 0 4 -6 6 -12 6 -7 -1
-60 -6 -118 -10z"/>
<path d="M6246 6139 c30 -33 72 -61 133 -85 l56 -24 -622 0 -623 0 0 -89 0
-89 308 -6 c169 -4 453 -14 632 -22 179 -9 357 -14 395 -10 135 11 280 65 388
143 48 36 124 120 115 128 -4 5 -744 75 -786 75 -12 0 -12 -4 4 -21z"/>
<path d="M2871 5884 c-12 -15 -21 -38 -21 -51 0 -32 42 -73 75 -73 36 0 75 42
75 80 0 67 -88 97 -129 44z"/>
<path d="M7257 5899 c-49 -29 -40 -107 15 -130 38 -15 76 2 96 44 30 62 -48
123 -111 86z"/>
<path d="M4535 5749 c-77 -3 -159 -7 -182 -8 l-43 -1 0 -131 c0 -122 1 -130
18 -125 32 10 258 25 490 32 l222 7 0 119 0 118 -182 -2 c-101 -1 -246 -5
-323 -9z"/>
<path d="M5190 5642 l0 -122 82 0 c108 0 494 -19 581 -29 l67 -7 0 126 0 127
-87 6 c-49 4 -213 10 -365 14 l-278 6 0 -121z"/>
<path d="M8933 5398 c1 -106 -1 -231 -5 -278 -7 -81 -7 -83 8 -52 8 19 22 68
31 110 26 128 7 412 -27 412 -5 0 -8 -87 -7 -192z"/>
<path d="M1272 5559 c-42 -112 -41 -317 2 -438 27 -77 45 -109 31 -56 -4 17
-9 137 -11 269 -2 131 -5 241 -8 244 -3 2 -9 -6 -14 -19z"/>
<path d="M2780 4055 c0 -3 23 -76 51 -163 28 -86 54 -185 56 -218 8 -88 -18
-163 -137 -397 -55 -109 -100 -200 -100 -203 0 -14 25 15 69 79 79 117 278
452 285 480 5 20 -16 70 -95 226 -59 116 -107 201 -115 201 -8 0 -14 -2 -14
-5z"/>
<path d="M7321 3860 c-55 -110 -101 -207 -101 -216 0 -17 16 -46 144 -259 110
-184 206 -328 213 -321 3 3 -40 94 -95 203 -55 109 -110 226 -122 261 -34 92
-25 177 38 369 46 141 50 163 32 163 -4 0 -53 -90 -109 -200z"/>
<path d="M2965 3527 c-33 -61 -83 -151 -112 -199 -28 -48 -50 -88 -49 -88 2 0
59 64 127 142 68 78 132 150 143 160 20 18 19 18 -10 50 -16 18 -31 36 -34 40
-3 3 -32 -44 -65 -105z"/>
<path d="M7167 3594 l-29 -34 94 -106 c51 -59 117 -136 146 -170 30 -35 56
-64 59 -64 3 0 1 6 -5 13 -10 12 -128 216 -192 335 -19 34 -37 62 -40 61 -3 0
-18 -16 -33 -35z"/>
<path d="M2120 3617 c-20 -10 -26 -21 -28 -54 -3 -36 1 -44 23 -59 82 -54 168
34 100 101 -27 28 -57 31 -95 12z"/>
<path d="M2045 3460 c-24 -27 -13 -66 26 -86 28 -14 32 -14 50 2 10 9 19 23
19 30 0 10 -64 74 -74 74 -2 0 -11 -9 -21 -20z"/>
<path d="M2202 3444 c-25 -17 -29 -56 -7 -74 35 -29 99 29 81 75 -7 19 -46 19
-74 -1z"/>
<path d="M8016 3609 c-52 -41 -21 -123 47 -123 47 0 77 27 77 70 0 37 -37 74
-75 74 -12 0 -34 -9 -49 -21z"/>
<path d="M8122 3451 c-34 -32 -39 -50 -20 -69 26 -26 73 -6 102 45 6 11 -29
53 -44 53 -3 0 -20 -13 -38 -29z"/>
<path d="M7955 3450 c-15 -17 -16 -24 -7 -45 7 -14 23 -30 37 -37 21 -9 28 -8
45 7 28 25 25 50 -9 74 -36 26 -43 26 -66 1z"/>
<path d="M867 2180 c-34 -27 -37 -78 -6 -106 20 -18 44 -19 540 -19 517 0 518
0 540 22 27 27 27 69 0 96 -21 22 -25 22 -535 25 -508 2 -513 2 -539 -18z"/>
<path d="M2210 2193 c-56 -21 -68 -87 -24 -122 25 -20 39 -21 265 -21 131 0
249 4 263 10 14 5 32 21 42 35 14 21 14 30 5 54 -7 16 -24 33 -37 40 -26 11
-484 15 -514 4z"/>
<path d="M3240 2193 c-56 -21 -68 -87 -24 -122 l27 -21 2449 0 2450 0 29 30
c35 34 33 61 -7 98 l-25 22 -2442 -1 c-1343 0 -2449 -3 -2457 -6z"/>
<path d="M8783 2188 c-27 -13 -47 -59 -38 -87 14 -47 49 -52 291 -49 224 3
226 3 245 27 24 30 24 62 0 92 -19 24 -21 24 -248 26 -147 1 -236 -2 -250 -9z"/>
</g>
</svg>
