<svg id="visual" viewBox="0 0 900 600" width="900" height="600" xmlns="http://www.w3.org/2000/svg" xmlns:xlink="http://www.w3.org/1999/xlink" version="1.1"><g stroke-width="1" stroke-linejoin="bevel"><path d="M429.1 316L452.9 364L484.9 339Z" fill="#a8481e" stroke="#a8481e"></path><path d="M429.1 316L444.1 389L452.9 364Z" fill="#95391d" stroke="#95391d"></path><path d="M452.9 364L529.9 434L484.9 339Z" fill="#faa307" stroke="#faa307"></path><path d="M484.9 339L501.9 234L429.1 316Z" fill="#cc6a1c" stroke="#cc6a1c"></path><path d="M349.3 397L391.1 427L444.1 389Z" fill="#95391d" stroke="#95391d"></path><path d="M429.1 316L349.3 397L444.1 389Z" fill="#cc6a1c" stroke="#cc6a1c"></path><path d="M315.3 313L349.3 397L429.1 316Z" fill="#cc6a1c" stroke="#cc6a1c"></path><path d="M391.1 427L529.9 434L444.1 389Z" fill="#581013" stroke="#581013"></path><path d="M444.1 389L529.9 434L452.9 364Z" fill="#dd7c18" stroke="#dd7c18"></path><path d="M484.9 339L564.7 267L501.9 234Z" fill="#dd7c18" stroke="#dd7c18"></path><path d="M588.7 293L564.7 267L484.9 339Z" fill="#cc6a1c" stroke="#cc6a1c"></path><path d="M529.9 434L575.7 382L484.9 339Z" fill="#a8481e" stroke="#a8481e"></path><path d="M575.7 382L588.7 293L484.9 339Z" fill="#cc6a1c" stroke="#cc6a1c"></path><path d="M331.3 218L315.3 313L429.1 316Z" fill="#cc6a1c" stroke="#cc6a1c"></path><path d="M525.9 558L552.7 463L529.9 434Z" fill="#cc6a1c" stroke="#cc6a1c"></path><path d="M529.9 434L552.7 463L575.7 382Z" fill="#581013" stroke="#581013"></path><path d="M371.1 181L331.3 218L429.1 316Z" fill="#95391d" stroke="#95391d"></path><path d="M349.3 397L337.3 460L391.1 427Z" fill="#cc6a1c" stroke="#cc6a1c"></path><path d="M391.1 427L382.1 530L529.9 434Z" fill="#95391d" stroke="#95391d"></path><path d="M303.3 487L337.3 460L241.5 447Z" fill="#dd7c18" stroke="#dd7c18"></path><path d="M501.9 234L371.1 181L429.1 316Z" fill="#cc6a1c" stroke="#cc6a1c"></path><path d="M544.7 143L417.1 155L501.9 234Z" fill="#faa307" stroke="#faa307"></path><path d="M501.9 234L417.1 155L371.1 181Z" fill="#bb581e" stroke="#bb581e"></path><path d="M588.7 293L632.5 267L564.7 267Z" fill="#cc6a1c" stroke="#cc6a1c"></path><path d="M564.7 267L544.7 143L501.9 234Z" fill="#581013" stroke="#581013"></path><path d="M680.5 390L632.5 267L588.7 293Z" fill="#bb581e" stroke="#bb581e"></path><path d="M680.5 390L588.7 293L575.7 382Z" fill="#faa307" stroke="#faa307"></path><path d="M298.3 193L245.5 323L315.3 313Z" fill="#cc6a1c" stroke="#cc6a1c"></path><path d="M315.3 313L245.5 323L349.3 397Z" fill="#6c1c17" stroke="#6c1c17"></path><path d="M303.3 487L382.1 530L337.3 460Z" fill="#ec8f12" stroke="#ec8f12"></path><path d="M337.3 460L382.1 530L391.1 427Z" fill="#581013" stroke="#581013"></path><path d="M371.1 181L298.3 193L331.3 218Z" fill="#dd7c18" stroke="#dd7c18"></path><path d="M331.3 218L298.3 193L315.3 313Z" fill="#dd7c18" stroke="#dd7c18"></path><path d="M353.3 61L298.3 193L371.1 181Z" fill="#a8481e" stroke="#a8481e"></path><path d="M624.5 207L544.7 143L564.7 267Z" fill="#ec8f12" stroke="#ec8f12"></path><path d="M632.5 267L624.5 207L564.7 267Z" fill="#dd7c18" stroke="#dd7c18"></path><path d="M241.5 447L337.3 460L349.3 397Z" fill="#a8481e" stroke="#a8481e"></path><path d="M649.5 488L666.5 428L552.7 463Z" fill="#812a1b" stroke="#812a1b"></path><path d="M552.7 463L666.5 428L575.7 382Z" fill="#faa307" stroke="#faa307"></path><path d="M692.4 133L631.5 163L624.5 207Z" fill="#bb581e" stroke="#bb581e"></path><path d="M666.5 428L680.5 390L575.7 382Z" fill="#bb581e" stroke="#bb581e"></path><path d="M382.1 530L525.9 558L529.9 434Z" fill="#581013" stroke="#581013"></path><path d="M631.5 163L531.9 108L544.7 143Z" fill="#6c1c17" stroke="#6c1c17"></path><path d="M544.7 143L531.9 108L417.1 155Z" fill="#a8481e" stroke="#a8481e"></path><path d="M417.1 155L353.3 61L371.1 181Z" fill="#6c1c17" stroke="#6c1c17"></path><path d="M525.9 558L580.7 539L552.7 463Z" fill="#cc6a1c" stroke="#cc6a1c"></path><path d="M223.5 415L241.5 447L349.3 397Z" fill="#95391d" stroke="#95391d"></path><path d="M245.5 323L223.5 415L349.3 397Z" fill="#a8481e" stroke="#a8481e"></path><path d="M708.4 263L624.5 207L632.5 267Z" fill="#44040b" stroke="#44040b"></path><path d="M624.5 207L631.5 163L544.7 143Z" fill="#dd7c18" stroke="#dd7c18"></path><path d="M666.5 428L710.4 445L680.5 390Z" fill="#812a1b" stroke="#812a1b"></path><path d="M580.7 539L649.5 488L552.7 463Z" fill="#cc6a1c" stroke="#cc6a1c"></path><path d="M680.5 390L708.4 263L632.5 267Z" fill="#44040b" stroke="#44040b"></path><path d="M381.1 600L447.9 600L382.1 530Z" fill="#44040b" stroke="#44040b"></path><path d="M382.1 530L447.9 600L525.9 558Z" fill="#581013" stroke="#581013"></path><path d="M525.9 558L544.7 600L580.7 539Z" fill="#cc6a1c" stroke="#cc6a1c"></path><path d="M381.1 600L382.1 530L325.3 600Z" fill="#bb581e" stroke="#bb581e"></path><path d="M223.5 415L233.5 485L241.5 447Z" fill="#95391d" stroke="#95391d"></path><path d="M241.5 447L233.5 485L303.3 487Z" fill="#812a1b" stroke="#812a1b"></path><path d="M298.3 193L202.5 238L245.5 323Z" fill="#bb581e" stroke="#bb581e"></path><path d="M245.5 323L179.6 353L223.5 415Z" fill="#a8481e" stroke="#a8481e"></path><path d="M202.5 238L179.6 353L245.5 323Z" fill="#faa307" stroke="#faa307"></path><path d="M223.5 415L144.6 487L233.5 485Z" fill="#44040b" stroke="#44040b"></path><path d="M325.3 600L382.1 530L303.3 487Z" fill="#581013" stroke="#581013"></path><path d="M537.7 63L450.9 56L531.9 108Z" fill="#581013" stroke="#581013"></path><path d="M531.9 108L450.9 56L417.1 155Z" fill="#6c1c17" stroke="#6c1c17"></path><path d="M298.3 193L209.5 166L202.5 238Z" fill="#581013" stroke="#581013"></path><path d="M649.5 488L710.4 445L666.5 428Z" fill="#6c1c17" stroke="#6c1c17"></path><path d="M680.5 390L759.4 394L708.4 263Z" fill="#faa307" stroke="#faa307"></path><path d="M703.4 528L710.4 445L649.5 488Z" fill="#581013" stroke="#581013"></path><path d="M450.9 56L413.1 57L417.1 155Z" fill="#cc6a1c" stroke="#cc6a1c"></path><path d="M447.9 600L544.7 600L525.9 558Z" fill="#581013" stroke="#581013"></path><path d="M580.7 539L703.4 528L649.5 488Z" fill="#ec8f12" stroke="#ec8f12"></path><path d="M631.5 163L537.7 63L531.9 108Z" fill="#581013" stroke="#581013"></path><path d="M413.1 57L353.3 61L417.1 155Z" fill="#6c1c17" stroke="#6c1c17"></path><path d="M233.5 485L325.3 600L303.3 487Z" fill="#95391d" stroke="#95391d"></path><path d="M224.5 99L209.5 166L298.3 193Z" fill="#95391d" stroke="#95391d"></path><path d="M202.5 238L122.6 272L179.6 353Z" fill="#44040b" stroke="#44040b"></path><path d="M710.4 445L759.4 394L680.5 390Z" fill="#cc6a1c" stroke="#cc6a1c"></path><path d="M708.4 263L692.4 133L624.5 207Z" fill="#44040b" stroke="#44040b"></path><path d="M631.5 163L696.5 85L537.7 63Z" fill="#581013" stroke="#581013"></path><path d="M774.4 229L692.4 133L708.4 263Z" fill="#6c1c17" stroke="#6c1c17"></path><path d="M687.5 600L703.4 528L580.7 539Z" fill="#bb581e" stroke="#bb581e"></path><path d="M710.4 445L799.2 492L759.4 394Z" fill="#95391d" stroke="#95391d"></path><path d="M353.3 61L224.5 99L298.3 193Z" fill="#faa307" stroke="#faa307"></path><path d="M413.1 57L326.3 0L353.3 61Z" fill="#812a1b" stroke="#812a1b"></path><path d="M353.3 61L264.5 0L224.5 99Z" fill="#bb581e" stroke="#bb581e"></path><path d="M450.9 56L440.1 0L413.1 57Z" fill="#faa307" stroke="#faa307"></path><path d="M495.9 0L440.1 0L450.9 56Z" fill="#6c1c17" stroke="#6c1c17"></path><path d="M495.9 0L450.9 56L537.7 63Z" fill="#a8481e" stroke="#a8481e"></path><path d="M153.6 127L129.6 255L209.5 166Z" fill="#44040b" stroke="#44040b"></path><path d="M209.5 166L129.6 255L202.5 238Z" fill="#faa307" stroke="#faa307"></path><path d="M120.6 444L144.6 487L223.5 415Z" fill="#a8481e" stroke="#a8481e"></path><path d="M542.7 0L495.9 0L537.7 63Z" fill="#faa307" stroke="#faa307"></path><path d="M791.2 278L774.4 229L708.4 263Z" fill="#bb581e" stroke="#bb581e"></path><path d="M129.6 255L122.6 272L202.5 238Z" fill="#812a1b" stroke="#812a1b"></path><path d="M759.4 394L791.2 278L708.4 263Z" fill="#6c1c17" stroke="#6c1c17"></path><path d="M630.5 0L542.7 0L537.7 63Z" fill="#cc6a1c" stroke="#cc6a1c"></path><path d="M120.6 444L223.5 415L179.6 353Z" fill="#a8481e" stroke="#a8481e"></path><path d="M233.5 485L207.5 600L325.3 600Z" fill="#a8481e" stroke="#a8481e"></path><path d="M767.4 117L696.5 85L692.4 133Z" fill="#6c1c17" stroke="#6c1c17"></path><path d="M692.4 133L696.5 85L631.5 163Z" fill="#812a1b" stroke="#812a1b"></path><path d="M87.8 371L120.6 444L179.6 353Z" fill="#6c1c17" stroke="#6c1c17"></path><path d="M544.7 600L687.5 600L580.7 539Z" fill="#581013" stroke="#581013"></path><path d="M703.4 528L799.2 492L710.4 445Z" fill="#a8481e" stroke="#a8481e"></path><path d="M440.1 0L326.3 0L413.1 57Z" fill="#a8481e" stroke="#a8481e"></path><path d="M687.5 600L699.4 600L703.4 528Z" fill="#dd7c18" stroke="#dd7c18"></path><path d="M137.6 600L207.5 600L144.6 487Z" fill="#95391d" stroke="#95391d"></path><path d="M144.6 487L207.5 600L233.5 485Z" fill="#812a1b" stroke="#812a1b"></path><path d="M188.6 50L153.6 127L224.5 99Z" fill="#a8481e" stroke="#a8481e"></path><path d="M224.5 99L153.6 127L209.5 166Z" fill="#dd7c18" stroke="#dd7c18"></path><path d="M73.8 236L71.8 319L122.6 272Z" fill="#faa307" stroke="#faa307"></path><path d="M71.8 319L87.8 371L179.6 353Z" fill="#ec8f12" stroke="#ec8f12"></path><path d="M71.8 319L179.6 353L122.6 272Z" fill="#812a1b" stroke="#812a1b"></path><path d="M696.5 85L630.5 0L537.7 63Z" fill="#faa307" stroke="#faa307"></path><path d="M815.2 600L799.2 492L703.4 528Z" fill="#faa307" stroke="#faa307"></path><path d="M759.4 394L851.2 396L791.2 278Z" fill="#bb581e" stroke="#bb581e"></path><path d="M799.2 171L767.4 117L692.4 133Z" fill="#faa307" stroke="#faa307"></path><path d="M696.5 85L723.4 0L630.5 0Z" fill="#95391d" stroke="#95391d"></path><path d="M799.2 171L692.4 133L774.4 229Z" fill="#44040b" stroke="#44040b"></path><path d="M852.2 219L799.2 171L774.4 229Z" fill="#cc6a1c" stroke="#cc6a1c"></path><path d="M852.2 219L774.4 229L791.2 278Z" fill="#95391d" stroke="#95391d"></path><path d="M799.2 492L828.2 410L759.4 394Z" fill="#44040b" stroke="#44040b"></path><path d="M0 410L103.8 484L120.6 444Z" fill="#581013" stroke="#581013"></path><path d="M120.6 444L103.8 484L144.6 487Z" fill="#a8481e" stroke="#a8481e"></path><path d="M73.8 236L122.6 272L129.6 255Z" fill="#dd7c18" stroke="#dd7c18"></path><path d="M46.8 534L90.8 600L103.8 484Z" fill="#44040b" stroke="#44040b"></path><path d="M326.3 0L264.5 0L353.3 61Z" fill="#faa307" stroke="#faa307"></path><path d="M264.5 0L188.6 50L224.5 99Z" fill="#95391d" stroke="#95391d"></path><path d="M53.8 181L73.8 236L129.6 255Z" fill="#cc6a1c" stroke="#cc6a1c"></path><path d="M53.8 181L129.6 255L153.6 127Z" fill="#44040b" stroke="#44040b"></path><path d="M900 467L851.2 396L828.2 410Z" fill="#faa307" stroke="#faa307"></path><path d="M828.2 410L851.2 396L759.4 394Z" fill="#6c1c17" stroke="#6c1c17"></path><path d="M900 263L852.2 219L791.2 278Z" fill="#ec8f12" stroke="#ec8f12"></path><path d="M900 139L790.2 53L767.4 117Z" fill="#ec8f12" stroke="#ec8f12"></path><path d="M103.8 484L137.6 600L144.6 487Z" fill="#faa307" stroke="#faa307"></path><path d="M790.2 53L723.4 0L696.5 85Z" fill="#cc6a1c" stroke="#cc6a1c"></path><path d="M790.2 53L696.5 85L767.4 117Z" fill="#812a1b" stroke="#812a1b"></path><path d="M84.8 96L53.8 181L153.6 127Z" fill="#812a1b" stroke="#812a1b"></path><path d="M0 269L0 343L71.8 319Z" fill="#a8481e" stroke="#a8481e"></path><path d="M900 139L767.4 117L799.2 171Z" fill="#581013" stroke="#581013"></path><path d="M167.6 0L84.8 96L188.6 50Z" fill="#ec8f12" stroke="#ec8f12"></path><path d="M188.6 50L84.8 96L153.6 127Z" fill="#581013" stroke="#581013"></path><path d="M264.5 0L167.6 0L188.6 50Z" fill="#cc6a1c" stroke="#cc6a1c"></path><path d="M900 467L900 352L851.2 396Z" fill="#dd7c18" stroke="#dd7c18"></path><path d="M851.2 396L900 352L791.2 278Z" fill="#44040b" stroke="#44040b"></path><path d="M699.4 600L815.2 600L703.4 528Z" fill="#bb581e" stroke="#bb581e"></path><path d="M799.2 492L900 467L828.2 410Z" fill="#6c1c17" stroke="#6c1c17"></path><path d="M900 352L900 263L791.2 278Z" fill="#a8481e" stroke="#a8481e"></path><path d="M852.2 219L900 186L799.2 171Z" fill="#95391d" stroke="#95391d"></path><path d="M103.8 484L90.8 600L137.6 600Z" fill="#dd7c18" stroke="#dd7c18"></path><path d="M46.8 534L103.8 484L0 507Z" fill="#faa307" stroke="#faa307"></path><path d="M120.6 444L87.8 371L0 410Z" fill="#581013" stroke="#581013"></path><path d="M0 343L87.8 371L71.8 319Z" fill="#a8481e" stroke="#a8481e"></path><path d="M0 269L71.8 319L73.8 236Z" fill="#ec8f12" stroke="#ec8f12"></path><path d="M0 189L73.8 236L53.8 181Z" fill="#44040b" stroke="#44040b"></path><path d="M0 189L0 269L73.8 236Z" fill="#6c1c17" stroke="#6c1c17"></path><path d="M0 343L0 410L87.8 371Z" fill="#cc6a1c" stroke="#cc6a1c"></path><path d="M900 501L900 467L799.2 492Z" fill="#95391d" stroke="#95391d"></path><path d="M900 263L900 186L852.2 219Z" fill="#812a1b" stroke="#812a1b"></path><path d="M815.2 600L900 501L799.2 492Z" fill="#44040b" stroke="#44040b"></path><path d="M0 188L0 189L53.8 181Z" fill="#dd7c18" stroke="#dd7c18"></path><path d="M0 188L53.8 181L84.8 96Z" fill="#faa307" stroke="#faa307"></path><path d="M0 33L0 188L84.8 96Z" fill="#ec8f12" stroke="#ec8f12"></path><path d="M900 186L900 139L799.2 171Z" fill="#a8481e" stroke="#a8481e"></path><path d="M790.2 53L833.2 0L723.4 0Z" fill="#95391d" stroke="#95391d"></path><path d="M0 410L0 507L103.8 484Z" fill="#cc6a1c" stroke="#cc6a1c"></path><path d="M46.8 534L0 600L90.8 600Z" fill="#95391d" stroke="#95391d"></path><path d="M900 55L833.2 0L790.2 53Z" fill="#44040b" stroke="#44040b"></path><path d="M815.2 600L900 600L900 501Z" fill="#a8481e" stroke="#a8481e"></path><path d="M167.6 0L53.8 0L84.8 96Z" fill="#6c1c17" stroke="#6c1c17"></path><path d="M900 139L900 55L790.2 53Z" fill="#ec8f12" stroke="#ec8f12"></path><path d="M0 507L0 600L46.8 534Z" fill="#bb581e" stroke="#bb581e"></path><path d="M53.8 0L0 33L84.8 96Z" fill="#95391d" stroke="#95391d"></path><path d="M900 55L900 0L833.2 0Z" fill="#bb581e" stroke="#bb581e"></path><path d="M53.8 0L0 0L0 33Z" fill="#812a1b" stroke="#812a1b"></path></g></svg>